# xmcd CD database file
#
# Track frame offsets:
#	150
#	13350
#	25025
#	42150
#	53962
#	66337
#	76575
#	89500
#	99800
#	113950
#	124250
#	135450
#	151062
#	162700
#	175862
#	191325
#
# Disc length: 2664 seconds
#
# Revision: 3
# Processed by: cddbd v1.5.2PL0 Copyright (c) Steve Scherf et al.
# Submitted via: CDex 1.51
#
DISCID=ca0a6610
DTITLE=Kenny Rogers - Greatest Hits
DYEAR=1900
DGENRE=Country
TTITLE0=Baby, Don't Take Your Love To Town
TTITLE1=Listen To The Music
TTITLE2=Somthing's Burning
TTITLE3=Me And Bobby Mc Gee
TTITLE4=Ruben James
TTITLE5=Once Again She's All Alone
TTITLE6=Then I Miss You
TTITLE7=Good Time Liberator
TTITLE8=Sunshine
TTITLE9=New Design
TTITLE10=Always Leaving, Always Gone
TTITLE11=Momma's Waiting
TTITLE12=Girl, Get A Hold Of Yourself
TTITLE13=A Stranger In My Place
TTITLE14=My Washington Woman
TTITLE15=It's A Grazy Afternoon
EXTD=
EXTT0=
EXTT1=
EXTT2=
EXTT3=
EXTT4=
EXTT5=
EXTT6=
EXTT7=
EXTT8=
EXTT9=
EXTT10=
EXTT11=
EXTT12=
EXTT13=
EXTT14=
EXTT15=
PLAYORDER=
